#!OML:ASF G:\JayActor3\Patient Classification 1\Patient 1\Session 5\male.ASF
:FULLY-SPECIFIED
:DEGREES
632
root -5.09182 17.1234 15.2341 -177.843 64.3703 -178.594
lowerback 5.06605 -0.401316 3.25849
upperback 1.36214 -0.337077 -0.0375794
thorax -1.45813 -0.161496 -1.84628
lowerneck -0.69981 3.6583 5.19084
upperneck 5.25962 4.99015 -3.64843
head 2.02934 2.53278 -1.95361
rclavicle -3.95085e-015 1.0635e-014
rhumerus -36.3553 -20.0941 -80.9025
rradius 16.3971
rwrist 20.1056
rhand -22.0198 -6.95799
rfingers 7.12502
rthumb 4.38968 -36.8925
lclavicle -3.95085e-015 1.0635e-014
lhumerus -26.9365 4.16893 89.1535
lradius 16.2421
lwrist 12.0472
lhand -21.4166 13.0069
lfingers 7.12502
lthumb 4.97207 42.9286
rfemur -9.9682 10.1964 24.2859
rtibia 36.4873
rfoot -24.1773 -22.1091
rtoes -9.91271
lfemur -2.81919 2.46081 -20.3173
ltibia 13.8554
lfoot -14.639 4.11576
ltoes -13.4019
633
root -5.08458 17.1192 15.2406 -177.988 63.2858 -178.793
lowerback 5.08952 -0.43022 3.24471
upperback 1.34844 -0.374838 -0.0324726
thorax -1.48735 -0.180849 -1.83077
lowerneck -0.709734 3.51767 5.0822
upperneck 5.19958 4.79892 -3.58469
head 1.99616 2.43605 -1.91818
rclavicle -8.24459e-014 -1.19271e-015
rhumerus -36.2343 -19.806 -81.0809
rradius 16.538
rwrist 19.8137
rhand -22.0378 -6.98823
rfingers 7.12502
rthumb 4.37225 -36.9231
lclavicle -8.24459e-014 -1.19271e-015
lhumerus -27.0361 4.19944 89.0514
lradius 16.1556
lwrist 12.0961
lhand -21.2664 13.0343
lfingers 7.12502
lthumb 5.11712 42.9525
rfemur -9.93971 10.309 24.1542
rtibia 36.465
rfoot -24.3461 -21.5348
rtoes -9.47325
lfemur -3.14799 2.5757 -20.2996
ltibia 14.2166
lfoot -14.6359 3.61728
ltoes -12.7872
634
root -5.07705 17.1152 15.2468 -178.105 62.2773 -178.968
lowerback 5.11388 -0.45717 3.22886
upperback 1.3353 -0.41014 -0.0288838
thorax -1.51632 -0.198961 -1.81577
lowerneck -0.715002 3.37953 4.97359
upperneck 5.13041 4.6109 -3.51888
head 1.9597 2.34089 -1.882
rclavicle -2.83268e-014 -3.97569e-015
rhumerus -36.1087 -19.5234 -81.2566
rradius 16.6763
rwrist 19.5327
rhand -22.0511 -7.00965
rfingers 7.12502
rthumb 4.35941 -36.9448
lclavicle -2.83268e-014 -3.97569e-015
lhumerus -27.1344 4.28262 88.9221
lradius 16.0464
lwrist 12.1051
lhand -21.1123 13.0606
lfingers 7.12502
lthumb 5.26588 42.9752
rfemur -9.90448 10.4182 24.0258
rtibia 36.4199
rfoot -24.5276 -20.9551
rtoes -8.95176
lfemur -3.46145 2.67939 -20.2844
ltibia 14.5543
lfoot -14.614 3.11684
ltoes -12.1726
635
root -5.06918 17.1116 15.2526 -178.197 61.3452 -179.12
lowerback 5.13905 -0.481437 3.21281
upperback 1.323 -0.441925 -0.0272307
thorax -1.54467 -0.215298 -1.80285
lowerneck -0.716897 3.24564 4.86256
upperneck 5.05442 4.42827 -3.44686
head 1.92083 2.24846 -1.8432
rclavicle 4.25275e-014 -9.24349e-015
rhumerus -35.98 -19.2575 -81.4244
rradius 16.8068
rwrist 19.2773
rhand -22.0601 -7.02583
rfingers 7.12502
rthumb 4.35078 -36.9611
lclavicle 4.25275e-014 -9.24349e-015
lhumerus -27.231 4.41092 88.7685
lradius 15.9156
lwrist 12.0792
lhand -20.9568 13.0819
lfingers 7.12502
lthumb 5.41604 42.9927
rfemur -9.86106 10.5251 23.9027
rtibia 36.3511
rfoot -24.7155 -20.3801
rtoes -8.36223
lfemur -3.75736 2.77042 -20.2712
ltibia 14.867
lfoot -14.5744 2.6188
ltoes -11.5809
636
root -5.06101 17.1083 15.2581 -178.267 60.4874 -179.252
lowerback 5.16458 -0.503185 3.19776
upperback 1.31106 -0.470363 -0.0271657
thorax -1.57268 -0.229962 -1.79231
lowerneck -0.719125 3.11535 4.75265
upperneck 4.9772 4.25029 -3.37188
head 1.88224 2.15839 -1.80343
rclavicle -2.35436e-014 -2.5842e-015
rhumerus -35.8487 -18.9983 -81.5906
rradius 16.9312
rwrist 19.0337
rhand -22.0706 -7.03811
rfingers 7.12502
rthumb 4.34056 -36.9736
lclavicle -2.35436e-014 -2.5842e-015
lhumerus -27.3271 4.58235 88.5926
lradius 15.7652
lwrist 12.0179
lhand -20.8032 13.0987
lfingers 7.12502
lthumb 5.56432 43.0056
rfemur -9.80994 10.63 23.7868
rtibia 36.2584
rfoot -24.9025 -19.8184
rtoes -7.71511
lfemur -4.03516 2.84894 -20.2587
ltibia 15.153
lfoot -14.5221 2.12152
ltoes -11.0017
637
root -5.0525 17.1056 15.2632 -178.314 59.7027 -179.362
lowerback 5.19066 -0.522972 3.18316
upperback 1.2991 -0.496195 -0.0276549
thorax -1.60085 -0.243335 -1.78272
lowerneck -0.719987 2.98979 4.64694
upperneck 4.89889 4.07866 -3.29733
head 1.84393 2.07155 -1.76436
rclavicle 4.7025e-014 1.09332e-014
rhumerus -35.7158 -18.7441 -81.7557
rradius 17.0498
rwrist 18.8012
rhand -22.0749 -7.04857
rfingers 7.12502
rthumb 4.33642 -36.9842
lclavicle 4.7025e-014 1.09332e-014
lhumerus -27.4231 4.79619 88.3963
lradius 15.597
lwrist 11.9209
lhand -20.6501 13.1135
lfingers 7.12502
lthumb 5.71221 43.0165
rfemur -9.75195 10.7344 23.6811
rtibia 36.1428
rfoot -25.0832 -19.2805
rtoes -7.02544
lfemur -4.294 2.91346 -20.2454
ltibia 15.41
lfoot -14.4556 1.62591
ltoes -10.4616
